<svg width="35" height="35" viewBox="0 0 35 35" fill="none" xmlns="http://www.w3.org/2000/svg">
<path d="M0.755588 33.945L0.676725 34.3118L1.04555 34.2434L10.4629 32.4982C14.006 34.1769 18.028 34.5518 21.8212 33.5552C25.6408 32.5517 28.9801 30.2228 31.2435 26.9839C33.5069 23.7451 34.5474 19.8068 34.1793 15.8715C33.8112 11.9362 32.0586 8.25968 29.2339 5.49756C26.4092 2.73544 22.6961 1.06737 18.7567 0.79087C14.8174 0.514373 10.908 1.64744 7.72578 3.98796C4.54358 6.32847 2.29546 9.72423 1.38229 13.5696C0.475984 17.3861 0.943124 21.3993 2.69985 24.9039L0.755588 33.945ZM10.7701 30.827L10.6951 30.7895L10.6127 30.8048L2.79554 32.2534L4.40843 24.7667L4.42774 24.6771L4.3845 24.5962L4.28829 24.4163C4.28815 24.416 4.28801 24.4158 4.28787 24.4155C2.62312 21.2424 2.14408 17.5789 2.93694 14.0838C3.72987 10.5885 5.74286 7.49107 8.61374 5.34877C11.4846 3.20648 15.025 2.15989 18.5979 2.39721C22.1709 2.63453 25.5421 4.14019 28.105 6.64341C30.6679 9.14664 32.2543 12.4831 32.5789 16.0527C32.9034 19.6223 31.9448 23.1907 29.8754 26.1159C27.806 29.0411 24.7617 31.1311 21.2902 32.0101C17.8189 32.889 14.1481 32.4994 10.9381 30.9111C10.938 30.9111 10.9379 30.911 10.9378 30.911L10.7701 30.827Z" fill="#4B2469" stroke="#352166" stroke-width="0.5"/>
<path d="M17.868 7.76649C15.9631 7.74714 14.0951 8.29254 12.4993 9.33396C10.9035 10.3754 9.65138 11.8662 8.90062 13.6187C8.14985 15.3712 7.93406 17.3068 8.28043 19.1818C8.6268 21.0568 9.51984 22.7873 10.847 24.1552C12.1742 25.5231 13.8762 26.4672 15.7385 26.8686C17.6008 27.27 19.5402 27.1107 21.3122 26.4109C23.0843 25.711 24.6098 24.5019 25.6965 22.9358C26.7832 21.3696 27.3825 19.5166 27.4189 17.6102C27.4409 16.3353 27.2109 15.0686 26.7423 13.8829C26.2736 12.6972 25.5754 11.6159 24.6878 10.7011C23.8003 9.78636 22.7409 9.05619 21.5705 8.55257C20.4002 8.04895 19.1419 7.7818 17.868 7.76649ZM25.0497 18.4314C24.8511 19.139 24.5387 19.8095 24.1245 20.4165C23.7517 20.9465 23.295 21.4123 22.7725 21.7953C21.6994 22.6089 20.4617 23.1781 19.1459 23.4632C18.719 23.5628 18.2832 23.6193 17.845 23.6321C17.7658 23.6321 17.7633 23.6756 17.7633 23.737V25.4714L17.5665 25.3716C16.8804 25.02 16.2232 24.6145 15.6011 24.159C14.936 23.6972 14.3485 23.1325 13.8606 22.486C13.5795 22.1183 13.3934 21.6869 13.3188 21.23C13.2652 20.7807 13.3546 20.3259 13.5744 19.9304C13.9012 19.3385 14.3416 18.8169 14.8701 18.3956C15.7275 17.6774 16.6721 17.0706 17.6815 16.5895C17.7015 16.5807 17.7219 16.573 17.7428 16.5665V18.2395C17.9984 18.1039 18.254 17.9837 18.484 17.8532C19.0563 17.5456 19.6055 17.1968 20.1273 16.8095C20.7029 16.4004 21.2131 15.9062 21.6403 15.3437C21.9306 14.9724 22.1183 14.5314 22.1847 14.0646C22.2264 13.6331 22.1374 13.199 21.9291 12.8188C21.6289 12.2588 21.2257 11.7606 20.7407 11.3504C20.0749 10.7633 19.3453 10.2527 18.5658 9.82835C18.3306 9.69788 18.0929 9.57254 17.8578 9.44463L17.7326 9.38067V11.1535C17.27 11.2251 16.8176 11.2814 16.3729 11.3658C15.8213 11.4821 15.2828 11.6535 14.7653 11.8774C13.9533 12.2135 13.1934 12.6641 12.5086 13.2153C11.8698 13.73 11.3472 14.3743 10.9752 15.1058C10.5081 16.0484 10.2278 17.0726 10.1496 18.1218C10.0883 18.7052 10.0883 19.2934 10.1496 19.8767C10.2231 20.5163 10.375 21.1444 10.602 21.7467C10.8739 22.4777 11.2766 23.1531 11.7904 23.7395C12.1911 24.1939 12.6591 24.5839 13.1782 24.8958C13.5284 25.1056 13.8913 25.3 14.2286 25.4893C14.1954 25.4893 14.1392 25.4586 14.0855 25.433C12.7285 24.8042 11.5523 23.8424 10.6659 22.637C9.80168 21.4543 9.24552 20.0747 9.04769 18.6229C8.84986 17.1711 9.0166 15.6928 9.53283 14.3217C10.0491 12.9505 10.8985 11.7298 12.0044 10.7697C13.1103 9.8097 14.4378 9.14063 15.8669 8.823C16.705 8.63533 17.5664 8.57411 18.4226 8.64137C19.1034 8.6875 19.7757 8.819 20.4238 9.03277C21.1515 9.28036 21.8446 9.61993 22.4863 10.0432C23.0369 10.4016 23.5269 10.8454 23.938 11.3581C24.3516 11.8851 24.6817 12.4727 24.9168 13.1002C25.1334 13.678 25.2826 14.2789 25.3615 14.8909C25.4194 15.3756 25.4314 15.8647 25.3973 16.3516C25.3607 17.0558 25.2441 17.7536 25.0497 18.4314Z" fill="#4B2469"/>
</svg>
