<svg width="21" height="35" viewBox="0 0 21 35" fill="none" xmlns="http://www.w3.org/2000/svg">
<path d="M11.7666 29.1995H9.23068C8.38355 29.1995 7.69543 29.7199 7.69543 30.3641C7.69543 31.0083 8.38355 31.5287 9.23068 31.5287H11.7666C12.6165 31.5287 13.3046 31.0054 13.3046 30.3641C13.3046 29.7227 12.611 29.1995 11.7666 29.1995Z" fill="#4B2569"/>
<path d="M17.7349 0H3.2624C2.3976 0.00148762 1.56864 0.354651 0.957137 0.982113C0.345632 1.60957 0.00144979 2.46017 0 3.34753L0 31.6497C0.000724683 32.5375 0.344587 33.3888 0.95617 34.0169C1.56775 34.645 2.39713 34.9985 3.2624 35H17.7349C18.6006 34.9993 19.4307 34.646 20.0429 34.0179C20.655 33.3897 20.9993 32.538 21 31.6497V3.34753C20.9985 2.45968 20.654 1.60866 20.0419 0.981121C19.4298 0.353578 18.6001 0.000743593 17.7349 0V0ZM18.73 31.6497C18.7293 31.9202 18.6242 32.1795 18.4377 32.3709C18.2513 32.5622 17.9986 32.67 17.7349 32.6708H3.2624C2.99894 32.67 2.74652 32.5621 2.56048 32.3707C2.37444 32.1793 2.26997 31.92 2.26997 31.6497V28.0546H18.7191L18.73 31.6497ZM18.73 22.0431V25.7254H2.28094V22.0431V19.7139V3.34753C2.28163 3.07962 2.38492 2.82271 2.56852 2.63222C2.75212 2.44172 3.00132 2.3329 3.2624 2.32921H17.7349C17.9983 2.32921 18.251 2.4364 18.4376 2.6273C18.6241 2.81819 18.7293 3.0772 18.73 3.34753V16.1779V22.0431Z" fill="#4B2569"/>
<path d="M13.3759 12.113L13.2525 12.0539C12.671 11.8009 12.0446 11.6744 11.4129 11.6826C10.3293 11.6841 9.29043 12.1265 8.52418 12.9127C7.75792 13.699 7.32679 14.7649 7.32534 15.8769C7.32534 17.3959 8.30955 18.1892 9.28279 18.1892C9.72623 18.1955 10.1641 18.0876 10.5564 17.8753C10.9487 17.663 11.2828 17.3531 11.5281 16.974C11.5671 17.2714 11.6944 17.5494 11.8927 17.7701C12.0237 17.9066 12.1806 18.0141 12.3536 18.0862C12.5266 18.1583 12.7122 18.1933 12.8988 18.1892C14.4478 18.1892 16.0132 16.7433 16.0132 13.9696C16.0132 10.9822 13.9653 8.90613 11.0346 8.90613C7.49806 8.90613 4.83057 11.7783 4.83057 15.5899C4.83057 18.7574 7.02378 21.0557 10.0093 21.0557C11.056 21.09 12.0939 20.8498 13.025 20.3581L13.1593 20.2821L12.7755 19.216L12.6 19.3172C11.8559 19.7103 11.0269 19.9038 10.1902 19.8798C7.75302 19.8798 6.11634 18.1132 6.11634 15.4802C6.11634 12.3212 8.12861 10.0313 10.9003 10.0313C13.2607 10.0313 14.7384 11.5785 14.7384 14.0737C14.7384 15.1652 14.4368 16.0963 13.9159 16.6251C13.8165 16.737 13.6966 16.8276 13.563 16.8918C13.4294 16.956 13.2847 16.9925 13.1374 16.9993C13.0849 16.9997 13.0331 16.988 12.9857 16.9651C12.9382 16.9422 12.8964 16.9087 12.8632 16.8671C12.7371 16.7039 12.6274 16.3045 12.8193 15.3114L13.3759 12.113ZM11.2156 12.94C11.4268 12.9386 11.6374 12.9622 11.8434 13.0104L11.5144 14.7601C11.3362 15.7812 10.511 16.9205 9.6666 16.9205C8.82221 16.9205 8.77286 16.1441 8.77286 15.8094C8.77286 14.2509 9.88318 12.94 11.2156 12.94Z" fill="#4B2569"/>
</svg>
