<svg width="55" height="40" viewBox="0 0 55 40" fill="none" xmlns="http://www.w3.org/2000/svg">
<path d="M45.5522 0H9.44777C6.9432 0.00376458 4.54227 1.01712 2.77128 2.81793C1.00028 4.61875 0.00370225 7.0601 0 9.60683V30.3932C0.0018536 32.9405 0.997836 35.3829 2.76923 37.1841C4.54063 38.9854 6.94263 39.9981 9.44777 40H45.5522C48.0574 39.9981 50.4594 38.9854 52.2308 37.1841C54.0022 35.3829 54.9981 32.9405 55 30.3932V9.60683C54.9963 7.0601 53.9997 4.61875 52.2287 2.81793C50.4577 1.01712 48.0568 0.00376458 45.5522 0V0ZM52.9005 30.3932C52.8986 32.3743 52.1239 34.2737 50.7462 35.6746C49.3685 37.0754 47.5005 37.8633 45.5522 37.8652H9.44777C7.49946 37.8633 5.63147 37.0754 4.25381 35.6746C2.87614 34.2737 2.10136 32.3743 2.0995 30.3932V9.60683C2.09968 7.74619 2.78646 5.95335 4.02405 4.58281L17.5519 14.2323C17.9616 13.6478 18.4308 13.1088 18.9515 12.6241L5.71765 3.18093C6.84542 2.49639 8.13435 2.13493 9.44777 2.13485H45.5522C46.8658 2.13386 48.155 2.4954 49.2824 3.18093L36.2444 12.4675C36.7717 12.951 37.2414 13.4955 37.6441 14.09L50.976 4.58281C52.2124 5.95409 52.899 7.74645 52.9005 9.60683V30.3932Z" fill="#382B51"/>
<path d="M27.4545 12.2897C30.0719 12.2897 32.2834 12.8448 33.837 14.1826L36.2444 12.4676C34.0749 10.4253 30.9817 9.40053 27.4545 9.40053C24.325 9.35003 21.2907 10.4953 18.9515 12.6099L21.5619 14.4672C23.2084 13.0511 25.298 12.2789 27.4545 12.2897Z" fill="#382B51"/>
<path d="M36.2934 20.8219C36.2934 22.9567 35.6985 25.2125 34.7048 25.4687C34.4179 25.5612 34.1379 25.3549 34.1379 24.8923V16.5806C33.0366 17.3664 31.8068 17.9471 30.5058 18.2956C31.0404 19.0423 31.3161 19.9484 31.2896 20.8717C31.2896 23.156 29.9529 25.0631 27.3635 25.0631C26.8337 25.0896 26.3043 25.003 25.8094 24.8089C25.3145 24.6147 24.865 24.3174 24.4899 23.936C24.1148 23.5546 23.8224 23.0976 23.6315 22.5943C23.4406 22.0911 23.3554 21.5527 23.3815 21.014C23.3733 20.0033 23.718 19.0224 24.3542 18.2458C23.2882 17.9369 22.2722 17.4718 21.3379 16.8653C20.4936 18.0881 20.0459 19.5484 20.0572 21.0425C20.0572 25.2339 23.2415 28.1586 27.3355 28.1586C28.5602 28.1586 30.7997 27.3759 31.4296 25.6182C31.4296 27.8099 33.1931 28.365 34.2989 28.365C37.6231 28.365 39.4986 25.4118 39.4986 20.8219C39.5701 18.4381 38.923 16.0891 37.6441 14.09L35.2017 15.8334C35.9906 17.3697 36.3672 19.0904 36.2934 20.8219Z" fill="#382B51"/>
<path d="M27.2935 13.8552C25.6919 13.8407 24.1284 14.3524 22.8356 15.314C24.0828 16.0322 25.4739 16.4534 26.9043 16.5458C28.3347 16.6383 29.7671 16.3996 31.0936 15.8477C30.6495 15.2451 30.0769 14.7527 29.4187 14.4076C28.7605 14.0625 28.0339 13.8736 27.2935 13.8552Z" fill="#382B51"/>
<path d="M31.2826 15.7624C31.8471 15.51 32.3861 15.2025 32.8922 14.8444H32.9342L31.4926 14.6024L31.2826 15.7624Z" fill="#382B51"/>
<path d="M27.2306 32.407C29.1352 32.4502 31.0145 31.9577 32.6613 30.9838L31.3526 28.4646C30.1203 29.1825 28.7122 29.5281 27.2936 29.4609C23.1435 29.4609 18.7136 27.3261 18.7136 21.0496C18.6725 19.2832 19.1606 17.5459 20.1133 16.0683L17.5519 14.2323C16.1791 16.2326 15.4683 18.6253 15.5223 21.0638C15.5223 29.0268 21.4289 32.407 27.2306 32.407Z" fill="#382B51"/>
<path d="M27.3705 16.9152C27.9608 16.8778 28.5512 16.9842 29.0929 17.2256C29.6345 17.4669 30.1117 17.8363 30.4848 18.3028C31.7858 17.9543 33.0156 17.3736 34.1169 16.5878V14.9796L32.9342 14.8159H32.8922C32.3795 15.1753 31.8333 15.4828 31.2616 15.7339L31.2126 16.0541C31.1713 15.9712 31.1221 15.8925 31.0657 15.8193C29.7391 16.3712 28.3067 16.6099 26.8763 16.5175C25.4459 16.425 24.0548 16.0038 22.8076 15.2856C22.2277 15.7227 21.7178 16.2484 21.296 16.844C22.2302 17.4506 23.2463 17.9157 24.3122 18.2246C24.6943 17.789 25.1671 17.4455 25.6961 17.219C26.2251 16.9925 26.7971 16.8887 27.3705 16.9152Z" fill="#382B51"/>
<path d="M21.5619 14.4672L18.9515 12.6099C18.4308 13.0945 17.9616 13.6336 17.5518 14.2181L20.1552 16.0754C20.5521 15.4785 21.0251 14.9377 21.5619 14.4672Z" fill="#382B51"/>
<path d="M35.1807 15.8335L37.6231 14.09C37.2204 13.4955 36.7507 12.951 36.2234 12.4675L33.816 14.1825C34.3606 14.6493 34.8222 15.2077 35.1807 15.8335Z" fill="#382B51"/>
</svg>
