<svg width="30" height="30" viewBox="0 0 30 30" fill="none" xmlns="http://www.w3.org/2000/svg">
<path d="M22.7949 30H7.20512C5.29464 29.9986 3.46281 29.239 2.11189 27.8881C0.760977 26.5372 0.0014136 24.7054 0 22.7949L0 7.20512C0.00282344 5.29507 0.762839 3.46406 2.11345 2.11345C3.46406 0.762839 5.29507 0.00282344 7.20512 0L22.7949 0C24.7054 0.0014136 26.5372 0.760977 27.8881 2.11189C29.239 3.46281 29.9986 5.29464 30 7.20512V22.7949C29.9986 24.7054 29.239 26.5372 27.8881 27.8881C26.5372 29.239 24.7054 29.9986 22.7949 30ZM7.20512 1.60114C5.71929 1.60255 4.29471 2.19342 3.24407 3.24407C2.19342 4.29471 1.60255 5.71929 1.60114 7.20512V22.7949C1.60255 24.2807 2.19342 25.7053 3.24407 26.7559C4.29471 27.8066 5.71929 28.3974 7.20512 28.3989H22.7949C24.2807 28.3974 25.7053 27.8066 26.7559 26.7559C27.8066 25.7053 28.3974 24.2807 28.3989 22.7949V7.20512C28.3974 5.71929 27.8066 4.29471 26.7559 3.24407C25.7053 2.19342 24.2807 1.60255 22.7949 1.60114H7.20512Z" fill="#382B51"/>
<path d="M15.0027 22.6508C13.4885 22.6518 12.008 22.2037 10.7486 21.3631C9.4892 20.5226 8.50741 19.3273 7.92748 17.9286C7.34755 16.5299 7.19553 14.9906 7.49067 13.5055C7.78581 12.0204 8.51484 10.6562 9.58552 9.58552C10.6562 8.51484 12.0204 7.78581 13.5055 7.49067C14.9906 7.19553 16.5299 7.34755 17.9286 7.92748C19.3273 8.50741 20.5226 9.4892 21.3631 10.7486C22.2037 12.008 22.6518 13.4885 22.6508 15.0027C22.6479 17.0302 21.8412 18.9739 20.4076 20.4076C18.9739 21.8412 17.0302 22.6479 15.0027 22.6508ZM15.0027 8.95035C13.8054 8.94929 12.6347 9.30336 11.6387 9.96775C10.6427 10.6321 9.86615 11.577 9.40725 12.6828C8.94835 13.7887 8.82773 15.0057 9.06066 16.1801C9.29358 17.3545 9.86959 18.4334 10.7158 19.2804C11.562 20.1274 12.6404 20.7043 13.8146 20.9383C14.9888 21.1722 16.206 21.0527 17.3122 20.5948C18.4184 20.1368 19.364 19.3611 20.0292 18.3657C20.6945 17.3703 21.0496 16.1999 21.0496 15.0027C21.0468 13.3993 20.409 11.8623 19.2757 10.728C18.1425 9.59376 16.606 8.95458 15.0027 8.95035Z" fill="#382B51"/>
<path d="M23.1418 9.1639C22.5477 9.16285 21.9673 8.98572 21.4739 8.65491C20.9804 8.3241 20.5961 7.85444 20.3695 7.30529C20.1429 6.75614 20.0842 6.15215 20.2007 5.56962C20.3173 4.9871 20.6039 4.4522 21.0243 4.0325C21.4447 3.6128 21.9802 3.32715 22.5629 3.21165C23.1456 3.09614 23.7495 3.15595 24.2983 3.38353C24.847 3.61112 25.316 3.99625 25.6459 4.49027C25.9758 4.9843 26.1519 5.56503 26.1519 6.1591C26.1519 6.55414 26.074 6.94531 25.9227 7.31022C25.7714 7.67513 25.5496 8.00661 25.27 8.2857C24.9904 8.5648 24.6585 8.78602 24.2933 8.93671C23.9282 9.0874 23.5368 9.1646 23.1418 9.1639ZM23.1418 4.75543C22.8644 4.75649 22.5936 4.83971 22.3634 4.99458C22.1333 5.14946 21.9542 5.36905 21.8488 5.62563C21.7434 5.8822 21.7163 6.16426 21.7711 6.4362C21.8259 6.70813 21.96 6.95774 22.1565 7.15351C22.353 7.34928 22.6031 7.48244 22.8753 7.53617C23.1474 7.5899 23.4293 7.56179 23.6855 7.4554C23.9417 7.349 24.1606 7.16909 24.3146 6.93837C24.4686 6.70766 24.5508 6.43649 24.5508 6.1591C24.5508 5.97432 24.5143 5.79135 24.4434 5.6207C24.3726 5.45005 24.2687 5.29508 24.1378 5.16466C24.0069 5.03425 23.8515 4.93097 23.6806 4.86074C23.5097 4.79052 23.3266 4.75473 23.1418 4.75543Z" fill="#382B51"/>
</svg>
