<svg width="41" height="41" viewBox="0 0 41 41" fill="none" xmlns="http://www.w3.org/2000/svg">
<path d="M12.619 34.8059L12.619 34.8059C14.4069 35.53 17.1698 36.3318 20.1879 36.0533C21.9825 35.8874 23.6966 35.3577 25.2935 34.4767L24.7205 33.5802C24.7204 33.5802 24.7204 33.5802 24.7204 33.5802C24.5004 33.2363 24.5086 32.7964 24.7416 32.4602C24.9746 32.1223 25.3831 31.9409 25.8079 31.9866C25.808 31.9866 25.808 31.9866 25.8081 31.9866L31.8582 32.6259C31.8582 32.6259 31.8582 32.6259 31.8582 32.6259L31.8583 32.6259L31.8478 32.7254C32.1621 32.7583 32.4467 32.9297 32.6098 33.1839L12.619 34.8059ZM12.619 34.8059C11.6001 34.3937 10.7836 33.9628 10.2792 33.6751M12.619 34.8059L10.2792 33.6751M29.6311 39.8967L29.6418 39.9962C30.051 39.9521 30.4033 39.7012 30.5574 39.336L30.5574 39.3359L32.7761 34.0641C32.9054 33.7579 32.8737 33.4072 32.6938 33.1296L28.5932 39.5505C28.8305 39.8719 29.2333 40.0409 29.642 39.9961L29.6311 39.8967ZM29.6311 39.8967C29.2558 39.9378 28.8886 39.7823 28.6736 39.491L32.684 34.0252L30.4652 39.2971C30.3262 39.6266 30.0067 39.8563 29.6311 39.8967ZM10.2792 33.6751L10.2296 33.7619M10.2792 33.6751L10.2296 33.7619M10.2296 33.7619L10.2793 33.6752C10.0062 33.5188 9.79481 33.3878 9.65447 33.2982M10.2296 33.7619C10.7369 34.0513 11.5575 34.4844 12.5815 34.8986L9.65447 33.2982M10.2296 33.7619C9.95471 33.6046 9.74183 33.4726 9.60037 33.3823M10.2296 33.7619L9.60037 33.3823M9.65447 33.2982C9.65457 33.2983 9.65468 33.2983 9.65478 33.2984L9.60037 33.3823M9.65447 33.2982C9.65436 33.2981 9.65426 33.2981 9.65416 33.298L9.60037 33.3823M9.65447 33.2982C9.58529 33.2533 9.53301 33.2191 9.48475 33.1861M9.65447 33.2982L9.48475 33.1861M9.60037 33.3823C9.53103 33.3373 9.47772 33.3025 9.42824 33.2686L9.60037 33.3823ZM9.48475 33.1861L9.45644 33.1666C8.96824 32.8229 8.28797 32.9038 7.90705 33.3538L9.48475 33.1861ZM27.8345 38.5247L28.5932 39.5504L18.794 39.8557L18.7801 39.9547C18.7801 39.9547 18.7801 39.9547 18.7801 39.9547C19.4721 40.0518 20.1586 40.1 20.8462 40.1C21.8201 40.1 22.7973 40.0029 23.7949 39.8072C25.0997 39.5529 26.4268 39.1315 27.8345 38.5247ZM27.0134 34.3394L27.0133 34.3393L26.4957 33.5297L31.1292 34.019L29.4105 38.1035L28.7293 37.1824L28.7292 37.1824C28.5096 36.8859 28.0951 36.787 27.755 36.9442C26.2358 37.6437 24.8389 38.1121 23.4807 38.3771L23.4806 38.3771C21.9581 38.6749 20.4947 38.7185 19.0075 38.5095L19.0075 38.5095C17.3287 38.2744 15.5985 37.7016 13.7865 36.7749C15.5989 37.3219 17.8828 37.7339 20.3383 37.507C22.6252 37.2967 24.7913 36.5625 26.7767 35.3263C27.121 35.1121 27.2286 34.6772 27.0134 34.3394Z" fill="#352166" stroke="#352166" stroke-width="0.2"/>
<path d="M32.5551 7.6463L32.5551 7.64636C32.1737 8.09648 31.4936 8.177 31.0051 7.83341C31.005 7.83337 31.005 7.83332 31.0049 7.83327L30.9703 7.80906C30.9701 7.80893 30.9699 7.8088 30.9697 7.80867C30.9366 7.78618 30.8979 7.76101 30.8494 7.72958C30.836 7.72085 30.8218 7.71164 30.8067 7.70186C30.6665 7.61207 30.4552 7.48109 30.1829 7.32544C29.6785 7.03772 28.8621 6.60711 27.8421 6.19499L27.842 6.19496C26.0537 5.47048 23.2916 4.66774 20.2735 4.94693L20.2735 4.94693C18.4789 5.1122 16.7654 5.64184 15.1679 6.52343L15.741 7.41965L15.7411 7.41977C15.9602 7.76359 15.9521 8.20303 15.7199 8.53914C15.5106 8.84425 15.1576 9.02038 14.7811 9.02038C14.7395 9.02038 14.697 9.01826 14.6542 9.01363L32.5551 7.6463ZM32.5551 7.6463C32.9397 7.19166 32.8669 6.54306 32.3929 6.17332L32.3928 6.1732C28.5657 3.20042 25.0612 1.51929 21.6813 1.0455C20.0115 0.811237 18.3704 0.859543 16.6671 1.19269C15.3621 1.44731 14.0346 1.86867 12.6276 2.47553L11.8686 1.44946L32.5551 7.6463ZM7.85197 7.81601L7.76777 7.86996C7.94804 8.15132 8.26128 8.33872 8.60331 8.37397C8.60333 8.37397 8.60335 8.37397 8.60337 8.37397L14.654 9.0136L9.99654 1.70273L9.90437 1.66394L9.90435 1.664L7.68562 6.93573C7.68561 6.93576 7.68559 6.9358 7.68558 6.93583C7.55631 7.24213 7.58808 7.59277 7.76805 7.87041L7.85197 7.81601ZM7.85197 7.81601C7.68995 7.56607 7.66137 7.2503 7.77775 6.97462L8.61362 8.2745C8.30038 8.24224 8.01503 8.07051 7.85197 7.81601ZM11.8685 1.44937C11.6315 1.12819 11.2278 0.958009 10.8205 1.00373L11.8685 1.44937ZM20.1228 3.49253L20.1227 3.49254L13.532 6.60704L13.4478 6.6609L13.4478 6.66093L13.9654 7.47085L9.33188 6.98121L11.0509 2.89665L11.7321 3.81777L11.7322 3.81779C11.9519 4.11479 12.3664 4.21276 12.7066 4.05606L12.6648 3.96523L12.7066 4.05606C14.2249 3.3568 15.6221 2.88813 16.9807 2.62338L16.9808 2.62337C18.5044 2.32531 19.9667 2.28206 21.4539 2.49065C23.1328 2.72611 24.8633 3.2987 26.6752 4.22539C24.8627 3.67841 22.5784 3.26645 20.1228 3.49253Z" fill="#352166" stroke="#352166" stroke-width="0.2"/>
<path d="M5.2552 14.2089L5.25517 14.2089C4.49476 14.9201 4.07818 15.8618 4.07851 16.861L5.2552 14.2089ZM5.2552 14.2089C6.01514 13.4975 7.02529 13.1048 8.0997 13.1044L5.2552 14.2089ZM8.09936 11.5176H8.09934C6.57941 11.5179 5.14708 12.0731 4.06906 13.082C2.99014 14.0917 2.39457 15.434 2.39457 16.8614L2.39457 16.8615C2.39635 19.8114 4.96211 22.2001 8.0997 22.2001H8.10145C9.62069 22.2001 11.052 21.6452 12.1296 20.6363C13.2093 19.6266 13.8049 18.2846 13.8042 16.8575C13.8031 13.9069 11.237 11.5176 8.09936 11.5176ZM8.09973 13.1044C10.3223 13.1045 12.1202 14.7949 12.1216 16.8579L8.09973 13.1044ZM12.1216 16.8579C12.1219 17.8564 11.7047 18.7978 10.9446 19.5094C10.1846 20.2205 9.1758 20.6132 8.10179 20.6132H8.10004C5.87744 20.6132 4.07953 18.9233 4.07851 16.8611L12.1216 16.8579Z" fill="#352166" stroke="#352166" stroke-width="0.2"/>
<path d="M15.2984 29.4547L15.2984 29.4549C15.2827 29.8882 14.9053 30.2223 14.4574 30.2223C14.4574 30.2223 14.4574 30.2223 14.4574 30.2223L1.7412 30.2242H1.74118C1.51797 30.2242 1.30279 30.1408 1.14412 29.9902C0.985224 29.8396 0.896503 29.6342 0.900105 29.4197M15.2984 29.4547L1.00009 29.4213M15.2984 29.4547C15.3017 29.3564 15.3335 28.1936 14.9896 26.7333C14.6459 25.2738 13.9247 23.5071 12.4145 22.2131L12.3494 22.2891M15.2984 29.4547L11.3382 22.1693M0.900105 29.4197C0.900106 29.4197 0.900106 29.4197 0.900107 29.4196L1.00009 29.4213M0.900105 29.4197C0.900105 29.4198 0.900105 29.4198 0.900104 29.4198L1.00009 29.4213M0.900105 29.4197C0.971876 24.7062 3.86356 22.3002 3.99413 22.1932L3.99454 22.1928C4.30322 21.9425 4.75744 21.9359 5.07321 22.1766M1.00009 29.4213C1.07117 24.751 3.93627 22.3699 4.05753 22.2705C4.33035 22.0492 4.73349 22.0434 5.01258 22.2562M5.07321 22.1766C5.0732 22.1766 5.07318 22.1766 5.07317 22.1766L5.01258 22.2562M5.07321 22.1766L5.01258 22.2562M5.07321 22.1766C6.57254 23.3187 8.12697 23.3239 9.31625 23.0389C9.91149 22.8963 10.4141 22.6811 10.77 22.5C10.9479 22.4095 11.0887 22.3277 11.1859 22.268C11.2344 22.2381 11.272 22.2138 11.2977 22.1968C11.3106 22.1882 11.3205 22.1815 11.3274 22.1768L11.3353 22.1714L11.3375 22.1698C11.3378 22.1696 11.338 22.1694 11.3381 22.1694C11.3381 22.1694 11.3381 22.1694 11.338 22.1694L11.3964 22.2506M5.01258 22.2562C8.07211 24.5868 11.3637 22.2741 11.3964 22.2506M11.3964 22.2506L11.3382 22.1693C11.3382 22.1693 11.3382 22.1693 11.3382 22.1693M11.3964 22.2506C11.6818 22.0453 12.0836 22.0613 12.3494 22.2891M11.3382 22.1693L14.4574 30.1223C14.8574 30.1223 15.1849 29.8251 15.1985 29.4513C15.2048 29.2643 15.3253 24.839 12.3494 22.2891M11.3382 22.1693C11.6607 21.9374 12.1134 21.9551 12.4145 22.2131L12.3494 22.2891M11.732 23.8229C13.126 25.3417 13.4915 27.4925 13.5856 28.6351L2.6274 28.637C2.86886 26.1553 4.00076 24.5636 4.64672 23.8407C7.30593 25.4481 10.137 24.6967 11.732 23.8229Z" fill="#352166" stroke="#352166" stroke-width="0.2"/>
<path d="M35.743 19.5094L35.743 19.5094C36.5041 18.7979 36.9207 17.8565 36.9207 16.8579C36.9194 14.7946 35.1214 13.1045 32.8992 13.1044L35.743 19.5094ZM35.743 19.5094C34.9837 20.2205 33.9742 20.6132 32.9006 20.6132M35.743 19.5094L32.9006 20.6132M32.9006 20.6132H32.8992M32.9006 20.6132H32.8992M32.8992 20.6132C30.6759 20.6132 28.8783 18.9233 28.8776 16.8611L32.8992 20.6132ZM30.054 14.2089C29.2942 14.92 28.8776 15.8618 28.8776 16.8611L30.054 14.2089ZM30.054 14.2089C30.8146 13.4975 31.8248 13.1048 32.8992 13.1044L30.054 14.2089ZM28.8682 13.082L28.8681 13.082C27.7896 14.0917 27.1944 15.434 27.1944 16.8614L27.1944 16.8615C27.1958 19.8114 29.7612 22.2001 32.8992 22.2001H32.9006C34.4205 22.2001 35.8514 21.6452 36.9287 20.6363C38.008 19.6266 38.6043 18.2847 38.604 16.8575V16.8574C38.6022 13.9069 36.0364 11.5176 32.8992 11.5176H32.8991C31.3785 11.5179 29.9472 12.0731 28.8682 13.082Z" fill="#352166" stroke="#352166" stroke-width="0.2"/>
<path d="M39.2573 30.2223C39.2573 30.2223 39.2573 30.2223 39.2572 30.2223H39.2573ZM39.2573 30.2223C39.7044 30.2223 40.0826 29.8882 40.0976 29.4545C40.0976 29.4545 40.0976 29.4545 40.0976 29.4544L39.9977 29.451L39.2573 30.2223ZM29.8729 22.1765C29.5563 21.936 29.1025 21.9423 28.7947 22.1929L37.2134 22.2132C36.9131 21.955 36.46 21.9375 36.1376 22.1694L36.137 22.1698L36.1348 22.1714L36.1269 22.1768C36.1201 22.1815 36.1101 22.1883 36.0973 22.1968C36.0715 22.2139 36.0339 22.2381 35.9854 22.268C35.8883 22.3277 35.7474 22.4095 35.5696 22.5C35.2137 22.6811 34.7111 22.8963 34.1159 23.0389C32.9267 23.3239 31.3724 23.3187 29.873 22.1766L29.8729 22.1765ZM36.5315 23.8229C37.9249 25.3418 38.2913 27.4927 38.3845 28.6351L27.4266 28.637C27.6677 26.1553 28.7996 24.5636 29.4455 23.8407C32.1048 25.4481 34.9365 24.6967 36.5315 23.8229Z" fill="#352166" stroke="#352166" stroke-width="0.2"/>
</svg>
