<svg width="58" height="52" viewBox="0 0 58 52" fill="none" xmlns="http://www.w3.org/2000/svg">
<g clip-path="url(#clip0)">
<path d="M49.7246 51.9999V50.597L48.7842 51.9999H49.7246Z" fill="#382B51"/>
<path d="M16.2831 49.8417V2.15827H47.5545V26.4676C47.9641 26.4073 48.3774 26.3761 48.7915 26.3741C49.1098 26.3741 49.4208 26.3885 49.7246 26.4173V0H14.113V23.3885H0L9.78 52H48.7842L47.3375 49.8417H16.2831ZM14.113 49.8417H11.328L3.03093 25.5468H14.113V49.8417Z" fill="#382B51"/>
<path d="M44.8853 9.0647H19.3213V15.8705H44.8853V9.0647ZM31.0182 13.7122H21.4914V11.223H31.0182V13.7122ZM42.7151 13.7122H33.1883V11.223H42.7151V13.7122Z" fill="#382B51"/>
<path d="M44.8853 18.7051H19.3213V25.518H44.8853V18.7051ZM31.0182 23.3885H21.4914V20.8634H31.0182V23.3885ZM42.7151 23.3885H33.1883V20.8634H42.7151V23.3885Z" fill="#382B51"/>
<path d="M33.1883 33.0936V30.5684H41.0659C41.594 29.7499 42.251 29.0212 43.0117 28.4102H19.3213V35.2519H39.5757C39.5971 34.5216 39.7088 33.7967 39.9085 33.0936H33.1883ZM31.0182 33.0936H21.4914V30.5684H31.0182V33.0936Z" fill="#382B51"/>
<path d="M49.7246 26.4173C49.4208 26.3885 49.1098 26.3741 48.7915 26.3741C48.3774 26.3761 47.9641 26.4074 47.5545 26.4677C46.2346 26.6387 44.9682 27.0943 43.8437 27.8026C42.7192 28.5109 41.7638 29.4548 41.0442 30.5684C40.5448 31.3483 40.1691 32.2 39.9302 33.0936C39.7305 33.7967 39.6188 34.5216 39.5974 35.2518C39.5974 35.3526 39.5974 35.4605 39.5974 35.5612C39.5968 37.7562 40.3902 39.8782 41.8326 41.5396L47.3664 49.8706L48.8132 52.0288L49.7536 50.59L56.0397 41.2375C56.3563 40.8418 56.6394 40.4207 56.886 39.9785L57.1103 39.5468C57.76 38.2179 58.077 36.7525 58.0343 35.2754C57.9916 33.7983 57.5905 32.3534 56.8651 31.0638C56.1396 29.7742 55.1115 28.6782 53.8682 27.8691C52.6248 27.0601 51.2033 26.562 49.7246 26.4173ZM54.2529 39.9281L53.0955 41.6835L49.7246 46.7195L48.7987 48.108L47.5545 46.2447L44.661 41.8346L43.5687 40.1943C42.4224 38.9147 41.7891 37.2606 41.7892 35.5468C41.7892 35.4461 41.7892 35.3382 41.7892 35.2375C41.8241 34.4998 41.9729 33.7718 42.2305 33.0792C42.3714 32.7187 42.5407 32.3699 42.7368 32.036C43.3577 30.9796 44.2445 30.1022 45.31 29.4904C46.3755 28.8786 47.5829 28.5533 48.8132 28.5468C49.1255 28.5487 49.4374 28.5728 49.7463 28.6187C51.4346 28.8433 52.9837 29.6692 54.1064 30.9432C55.2291 32.2171 55.8491 33.8528 55.8516 35.5468C55.8435 37.147 55.2786 38.6951 54.2529 39.9281Z" fill="#382B51"/>
<path d="M44.8853 33.7698V35.2087H44.4946C44.4872 35.3284 44.4872 35.4486 44.4946 35.5684C44.4996 36.4907 44.8015 37.3872 45.3561 38.1264C45.9106 38.8657 46.6887 39.4088 47.5762 39.6763V37.3238C47.3011 37.1233 47.0774 36.8612 46.9232 36.5588C46.769 36.2563 46.6886 35.9219 46.6886 35.5828C46.6886 35.2436 46.769 34.9092 46.9232 34.6068C47.0774 34.3043 47.3011 34.0422 47.5762 33.8418V31.4677C46.9899 31.6411 46.447 31.9359 45.9833 32.3326C45.5195 32.7294 45.1453 33.2191 44.8853 33.7698Z" fill="#382B51"/>
<path d="M50.9399 35.5828C50.9353 35.9824 50.8193 36.3729 50.6047 36.7108C50.3901 37.0487 50.0855 37.3207 49.7246 37.4965V39.7698C50.6664 39.5385 51.5031 39.0001 52.1012 38.2405C52.6993 37.4809 53.0243 36.544 53.0243 35.5792C53.0243 34.6144 52.6993 33.6775 52.1012 32.9179C51.5031 32.1583 50.6664 31.6199 49.7246 31.3885V33.6691C50.0855 33.8449 50.3901 34.1169 50.6047 34.4548C50.8193 34.7927 50.9353 35.1832 50.9399 35.5828Z" fill="#382B51"/>
<path d="M48.7915 33.4461C49.1156 33.4483 49.4349 33.5246 49.7246 33.6691V31.3886C49.418 31.3223 49.1052 31.2885 48.7915 31.2878C48.3726 31.2881 47.9559 31.3487 47.5545 31.4677V33.813C47.9199 33.5688 48.3513 33.4408 48.7915 33.4461Z" fill="#382B51"/>
<path d="M48.7915 37.7195C48.3482 37.7164 47.9165 37.5783 47.5545 37.3239V39.6907C47.9549 39.8152 48.372 39.8783 48.7915 39.8778C49.1055 39.8747 49.4183 39.8385 49.7246 39.7699V37.4965C49.4349 37.6411 49.1156 37.7174 48.7915 37.7195Z" fill="#382B51"/>
<path d="M44.8853 33.7698C44.671 34.2228 44.5388 34.7099 44.4946 35.2086H44.8853V33.7698Z" fill="#382B51"/>
</g>
<defs>
<clipPath id="clip0">
<rect width="58" height="52" fill="white"/>
</clipPath>
</defs>
</svg>
